<svg xmlns="http://www.w3.org/2000/svg" version="1.1" xmlns:xlink="http://www.w3.org/1999/xlink" xmlns:svgjs="http://svgjs.dev/svgjs" width="3840" height="2160" preserveAspectRatio="none" viewBox="0 0 3840 2160"><g mask="url(&quot;#SvgjsMask1060&quot;)" fill="none"><rect width="3840" height="2160" x="0" y="0" fill="rgba(23, 43, 77, 1)"></rect><path d="M3904 2160L0 2160 L0 1559.42Q208.74 1448.16, 320 1656.91Q378.48 1395.39, 640 1453.87Q752.63 1374.5, 832 1487.13Q1115.01 1450.14, 1152 1733.14Q1229.81 1618.95, 1344 1696.75Q1333.12 1493.87, 1536 1482.99Q1607.42 1362.41, 1728 1433.84Q1984.02 1369.86, 2048 1625.87Q2166.25 1424.12, 2368 1542.37Q2492.72 1347.09, 2688 1471.81Q2893.55 1357.36, 3008 1562.91Q3076.5 1439.41, 3200 1507.91Q3278.83 1394.74, 3392 1473.56Q3529.63 1291.18, 3712 1428.81Q3886.57 1411.38, 3904 1585.96z" fill="rgba(244, 245, 247, 1)"></path><path d="M3904 2160L0 2160 L0 1753.15Q241.32 1674.47, 320 1915.79Q402.34 1806.13, 512 1888.47Q654.16 1838.63, 704 1980.8Q875.17 1831.97, 1024 2003.13Q1049.36 1836.49, 1216 1861.86Q1296.48 1750.34, 1408 1830.81Q1504.37 1607.18, 1728 1703.55Q1869.91 1653.46, 1920 1795.37Q2038.37 1721.74, 2112 1840.11Q2232.94 1769.05, 2304 1889.98Q2395.4 1661.38, 2624 1752.78Q2738.33 1675.11, 2816 1789.44Q2917.3 1570.74, 3136 1672.03Q3256.96 1600.99, 3328 1721.95Q3459.16 1661.12, 3520 1792.28Q3634.13 1714.4, 3712 1828.53Q3726.92 1651.45, 3904 1666.38z" fill="rgba(161, 167, 177, 1)"></path><path d="M4032 2160L0 2160 L0 2233.46Q80.47 1993.93, 320 2074.4Q524.54 1958.94, 640 2163.49Q714.55 2046.03, 832 2120.58Q938.56 1907.14, 1152 2013.7Q1397.01 1938.71, 1472 2183.72Q1527.54 1919.26, 1792 1974.79Q1913.28 1904.07, 1984 2025.35Q2170.83 2020.18, 2176 2207Q2310.19 2021.19, 2496 2155.39Q2525.52 1992.91, 2688 2022.43Q2733.24 1875.68, 2880 1920.92Q3072.3 1793.22, 3200 1985.52Q3278.14 1871.66, 3392 1949.81Q3593.19 1831, 3712 2032.19Q3856.46 1856.65, 4032 2001.11z" fill="rgba(23, 43, 77, 1)"></path></g><defs><mask id="SvgjsMask1060"><rect width="3840" height="2160" fill="#ffffff"></rect></mask></defs></svg>